emg_normalized.mot
version=1
nRows=32
nColumns=17
in_degrees=yes
endheader
time	VM	VL	RF	GRA	TA	ADDLONG	SEMIMEM	BFLH	GM	GL	TFL	GLUTMAX	GLUTMED	PIRI	OBTINT	QF
3.112500	0.006325	0.000000	0.476845	0.562699	0.203814	0.186411	0.037482	0.030836	0.111516	0.026406	0.364903	0.039721	0.425809	0.123805	0.220951	0.219150
3.113000	0.006612	0.000000	0.482001	0.562292	0.207282	0.186275	0.036184	0.030461	0.107960	0.025336	0.365288	0.039912	0.429934	0.123672	0.221238	0.217268
3.113500	0.006893	0.000000	0.487165	0.561852	0.210770	0.186122	0.034918	0.030099	0.104488	0.024299	0.365679	0.040100	0.434133	0.123547	0.221573	0.215380
3.114000	0.007168	0.000000	0.492334	0.561380	0.214276	0.185950	0.033683	0.029749	0.101098	0.023296	0.366075	0.040283	0.438400	0.123430	0.221955	0.213489
3.114500	0.007437	0.000000	0.497502	0.560876	0.217797	0.185763	0.032480	0.029408	0.097792	0.022323	0.366478	0.040463	0.442739	0.123316	0.222384	0.211598
3.115000	0.007700	0.000000	0.502670	0.560337	0.221332	0.185556	0.031309	0.029082	0.094565	0.021382	0.366887	0.040638	0.447149	0.123214	0.222860	0.209707
3.115500	0.007956	0.000000	0.507838	0.559766	0.224880	0.185331	0.030168	0.028765	0.091418	0.020474	0.367300	0.040810	0.451623	0.123117	0.223381	0.207816
3.116000	0.008207	0.000000	0.513007	0.559161	0.228438	0.185088	0.029056	0.028460	0.088352	0.019595	0.367721	0.040977	0.456166	0.123027	0.223947	0.205927
3.116500	0.008451	0.000000	0.518167	0.558525	0.232006	0.184828	0.027975	0.028165	0.085363	0.018747	0.368147	0.041141	0.460773	0.122940	0.224557	0.204044
3.117000	0.008689	0.000000	0.523319	0.557850	0.235580	0.184550	0.026924	0.027881	0.082452	0.017928	0.368578	0.041301	0.465444	0.122866	0.225210	0.202163
3.117500	0.008922	0.000000	0.528463	0.557142	0.239160	0.184254	0.025902	0.027607	0.079620	0.017137	0.369014	0.041457	0.470176	0.122796	0.225906	0.200290
3.118000	0.009148	0.000000	0.533594	0.556397	0.242745	0.183941	0.024908	0.027342	0.076862	0.016377	0.369455	0.041610	0.474970	0.122733	0.226643	0.198423
3.118500	0.009368	0.000000	0.538713	0.555619	0.246330	0.183610	0.023942	0.027087	0.074179	0.015643	0.369901	0.041758	0.479828	0.122678	0.227420	0.196563
3.119000	0.009582	0.000000	0.543816	0.554802	0.249916	0.183262	0.023005	0.026841	0.071570	0.014937	0.370349	0.041904	0.484740	0.122631	0.228236	0.194714
3.119500	0.009789	0.000000	0.548902	0.553949	0.253500	0.182896	0.022094	0.026604	0.069033	0.014259	0.370801	0.042045	0.489710	0.122592	0.229091	0.192873
3.120000	0.009992	0.000000	0.553972	0.553060	0.257079	0.182513	0.021212	0.026377	0.066570	0.013607	0.371255	0.042183	0.494738	0.122561	0.229983	0.191043
3.120500	0.010186	0.000000	0.559022	0.552134	0.260654	0.182115	0.020354	0.026158	0.064179	0.012980	0.371711	0.042317	0.499817	0.122534	0.230910	0.189224
3.121000	0.010376	0.000000	0.564051	0.551175	0.264219	0.181699	0.019524	0.025947	0.061855	0.012380	0.372167	0.042448	0.504950	0.122518	0.231873	0.187416
3.121500	0.010561	0.000000	0.569056	0.550179	0.267778	0.181269	0.018719	0.025746	0.059602	0.011805	0.372624	0.042575	0.510134	0.122506	0.232867	0.185623
3.122000	0.010739	0.000000	0.574036	0.549147	0.271324	0.180822	0.017939	0.025552	0.057417	0.011253	0.373080	0.042698	0.515365	0.122502	0.233894	0.183841
3.122500	0.010911	0.000000	0.578987	0.548082	0.274858	0.180360	0.017184	0.025367	0.055298	0.010725	0.373533	0.042819	0.520644	0.122502	0.234951	0.182073
3.123000	0.011079	0.000000	0.583909	0.546981	0.278377	0.179884	0.016454	0.025189	0.053247	0.010222	0.373984	0.042936	0.525971	0.122514	0.236037	0.180319
3.123500	0.011239	0.000000	0.588799	0.545846	0.281881	0.179392	0.015747	0.025020	0.051258	0.009739	0.374429	0.043050	0.531338	0.122526	0.237150	0.178581
3.124000	0.011395	0.000000	0.593656	0.544680	0.285366	0.178886	0.015064	0.024858	0.049336	0.009281	0.374869	0.043160	0.536749	0.122549	0.238289	0.176857
3.124500	0.011545	0.000000	0.598477	0.543479	0.288832	0.178366	0.014405	0.024704	0.047473	0.008844	0.375301	0.043268	0.542205	0.122577	0.239451	0.175148
3.125000	0.011689	0.000000	0.603264	0.542246	0.292277	0.177835	0.013767	0.024557	0.045673	0.008428	0.375726	0.043371	0.547698	0.122608	0.240636	0.173455
3.125500	0.011827	0.000000	0.608015	0.540980	0.295697	0.177289	0.013153	0.024416	0.043934	0.008033	0.376139	0.043471	0.553235	0.122647	0.241842	0.171779
3.126000	0.011960	0.000000	0.612728	0.539689	0.299093	0.176732	0.012560	0.024283	0.042254	0.007657	0.376543	0.043569	0.558806	0.122690	0.243067	0.170118
3.126500	0.012089	0.000000	0.617401	0.538367	0.302461	0.176163	0.011988	0.024158	0.040631	0.007303	0.376934	0.043665	0.564414	0.122737	0.244309	0.168473
3.127000	0.012211	0.000000	0.622033	0.537018	0.305800	0.175583	0.011437	0.024039	0.039067	0.006968	0.377311	0.043756	0.570056	0.122788	0.245568	0.166845
3.127500	0.012328	0.000000	0.626620	0.535646	0.309109	0.174992	0.010908	0.023925	0.037557	0.006650	0.377675	0.043845	0.575736	0.122843	0.246840	0.165234
3.128000	0.012441	0.000094	0.631166	0.534249	0.312386	0.174392	0.010398	0.023820	0.036102	0.006352	0.378025	0.043930	0.581446	0.122905	0.248125	0.163637
